<svg xmlns="http://www.w3.org/2000/svg" width="367" height="503" viewBox="0 0 367 503" fill="none"><g clip-path="url(#clip0_1_2)"><path d="M362.39 5.01999H5V425.06V425.51L183.7 497.42L362.39 425.51V425.06V5.01999Z" fill="white"></path><path d="M183.5 502.81L0 428.96V0H367V428.96L183.5 502.8V502.81ZM9.61 422.06L183.5 492.04L357.39 422.06V10.05H9.61V422.06Z" fill="url(#paint0_linear_1_2)"></path><path d="M28.82 387.71V410.4V410.77L183.5 470.28L338.18 410.77V410.4V387.71L183.5 447.22L28.82 387.71Z" fill="#FC584E"></path><path d="M28.82 355.53V378.22V378.58L183.5 438.09L338.18 378.58V378.22V355.53L183.5 415.03L28.82 355.53Z" fill="#FF7E6E"></path><path d="M28.82 323.34V346.03V346.4L183.5 405.91L338.18 346.4V346.03V323.34L183.5 382.85L28.82 323.34Z" fill="#FFA090"></path><path d="M79.07 127.08V130.47H77C75.56 130.56 74.14 130.12 73.01 129.21C72.05 128.36 71.63 126.96 71.63 125.01V118.28H69.47V114.96H71.62V111.12H75.57V114.96H79.04V118.28H75.57V125.01C75.51 125.57 75.67 126.13 76.01 126.58C76.44 126.93 76.98 127.09 77.53 127.03L79.07 127.08Z" fill="#B41D1B"></path><path d="M96.34 123.46H84.97C84.93 124.59 85.33 125.68 86.08 126.52C86.78 127.17 87.7 127.51 88.65 127.48C89.47 127.51 90.27 127.28 90.94 126.81C91.54 126.37 91.95 125.72 92.1 124.99H96.27C95.86 127.18 94.4 129.02 92.36 129.91C91.26 130.41 90.06 130.66 88.85 130.64C87.45 130.67 86.06 130.34 84.81 129.68C83.65 129.05 82.7 128.09 82.07 126.93C80.76 124.26 80.76 121.13 82.07 118.46C82.69 117.29 83.64 116.33 84.81 115.7C86.05 115.05 87.44 114.72 88.85 114.74C90.25 114.71 91.63 115.04 92.87 115.7C93.99 116.31 94.91 117.22 95.53 118.32C96.18 119.48 96.51 120.78 96.49 122.11C96.47 122.57 96.42 123.02 96.33 123.46H96.34ZM91.54 118.85C90.81 118.21 89.87 117.86 88.9 117.89C87.91 117.85 86.95 118.2 86.21 118.85C85.43 119.61 85 120.65 85.01 121.73H92.53C92.66 120.66 92.28 119.6 91.51 118.85H91.54Z" fill="#B41D1B"></path><path d="M111.24 116.38C112.59 117.49 113.49 119.07 113.75 120.8H109.58C109.44 120.04 109.03 119.36 108.43 118.88C107.78 118.39 106.98 118.14 106.16 118.17C105.16 118.15 104.2 118.58 103.55 119.33C102.15 121.38 102.15 124.08 103.55 126.13C104.21 126.88 105.16 127.31 106.16 127.29C106.98 127.32 107.78 127.07 108.43 126.57C109.03 126.09 109.44 125.41 109.58 124.65H113.75C113.49 126.38 112.59 127.96 111.24 129.07C109.82 130.18 108.05 130.76 106.24 130.69C104.84 130.72 103.45 130.39 102.2 129.73C101.04 129.1 100.09 128.14 99.46 126.98C98.15 124.31 98.15 121.18 99.46 118.51C100.08 117.34 101.03 116.38 102.2 115.75C103.44 115.1 104.83 114.77 106.24 114.79C108.04 114.72 109.81 115.28 111.24 116.38Z" fill="#B41D1B"></path><path d="M130.06 116.5C131.2 117.89 131.77 119.66 131.65 121.45V130.47H127.77V121.9C127.83 120.85 127.49 119.82 126.81 119.02C126.13 118.32 125.18 117.95 124.21 117.99C123.2 117.95 122.21 118.35 121.52 119.09C120.81 119.97 120.47 121.09 120.56 122.22V130.45H116.61V109.76H120.56V118.07C120.95 117.05 121.66 116.19 122.59 115.62C123.57 115.02 124.71 114.71 125.86 114.74C127.45 114.69 128.99 115.33 130.07 116.51L130.06 116.5Z" fill="#B41D1B"></path><path d="M141.37 115.58C142.33 115.01 143.44 114.71 144.56 114.72V118.95H143.42C140.53 118.95 139.08 120.3 139.08 122.99V130.46H135.14V114.95H139.08V117.91C139.63 116.95 140.42 116.15 141.38 115.58H141.37Z" fill="#B41D1B"></path><path d="M161.19 123.46H149.87C149.83 124.59 150.23 125.68 150.99 126.52C151.69 127.17 152.61 127.52 153.56 127.48C154.37 127.51 155.17 127.28 155.84 126.81C156.44 126.37 156.86 125.72 157 124.99H161.17C160.97 126.04 160.52 127.03 159.85 127.87C159.16 128.74 158.28 129.43 157.27 129.88C154.85 130.93 152.08 130.84 149.73 129.64C148.56 129.01 147.61 128.06 146.98 126.89C145.67 124.22 145.67 121.09 146.98 118.42C147.6 117.25 148.56 116.29 149.73 115.66C150.97 115.01 152.35 114.68 153.76 114.7C155.16 114.67 156.54 115 157.78 115.66C158.9 116.26 159.82 117.17 160.44 118.28C161.09 119.44 161.42 120.74 161.4 122.07C161.38 122.54 161.3 123.01 161.19 123.46ZM156.39 118.85C155.67 118.2 154.72 117.86 153.75 117.89C152.76 117.85 151.8 118.2 151.06 118.85C150.29 119.61 149.86 120.65 149.86 121.73H157.39C157.51 120.66 157.13 119.6 156.36 118.85H156.39Z" fill="#B41D1B"></path><path d="M170.87 126.52L174.79 114.99H178.99L173.23 130.5H168.43L162.67 114.99H166.9L170.89 126.52H170.87Z" fill="#B41D1B"></path><path d="M181.39 108.96C182.43 108.15 183.89 108.15 184.93 108.96C185.78 109.76 185.82 111.1 185.02 111.95C184.99 111.98 184.96 112.01 184.93 112.04C183.89 112.85 182.43 112.85 181.39 112.04C180.54 111.24 180.5 109.9 181.3 109.05C181.33 109.02 181.36 108.99 181.39 108.96ZM185.12 114.96V130.47H181.17V114.96H185.12Z" fill="#B41D1B"></path><path d="M203.15 123.46H191.78C191.74 124.59 192.14 125.68 192.9 126.52C193.6 127.17 194.52 127.51 195.47 127.48C196.28 127.51 197.08 127.28 197.75 126.81C198.35 126.37 198.77 125.72 198.91 124.99H203.09C202.88 126.04 202.43 127.03 201.76 127.87C201.08 128.74 200.19 129.43 199.18 129.88C196.76 130.93 193.99 130.84 191.64 129.64C190.48 129.01 189.52 128.06 188.89 126.89C187.58 124.22 187.58 121.09 188.89 118.42C189.51 117.25 190.47 116.29 191.64 115.66C192.88 115.01 194.26 114.68 195.67 114.7C197.07 114.67 198.45 115 199.69 115.66C200.81 116.26 201.73 117.17 202.35 118.28C203 119.44 203.33 120.74 203.31 122.07C203.31 122.54 203.25 123.01 203.15 123.46ZM198.34 118.85C197.61 118.21 196.66 117.86 195.69 117.89C194.71 117.86 193.75 118.2 193.01 118.85C192.23 119.61 191.8 120.65 191.8 121.73H199.33C199.45 120.67 199.08 119.6 198.32 118.85H198.34Z" fill="#B41D1B"></path><path d="M228.28 114.96L224.11 130.47H219.75L216.42 119.19L213.01 130.47H208.64L204.5 114.96H208.49L211.01 126.94L214.45 114.96H218.63L222.1 126.94L224.65 114.96H228.3H228.28Z" fill="#B41D1B"></path><path d="M244.69 123.46H233.32C233.28 124.58 233.68 125.68 234.43 126.52C235.13 127.17 236.05 127.51 237 127.48C237.82 127.51 238.62 127.28 239.29 126.81C239.89 126.37 240.3 125.72 240.45 124.99H244.62C244.21 127.18 242.75 129.02 240.71 129.91C239.61 130.41 238.41 130.66 237.2 130.64C235.8 130.67 234.41 130.34 233.16 129.68C232 129.05 231.05 128.09 230.42 126.93C229.11 124.26 229.11 121.13 230.42 118.46C231.04 117.29 231.99 116.33 233.16 115.7C234.4 115.05 235.79 114.72 237.2 114.74C238.6 114.71 239.98 115.04 241.22 115.7C242.34 116.31 243.26 117.22 243.88 118.32C244.53 119.48 244.86 120.78 244.84 122.11C244.82 122.57 244.77 123.02 244.68 123.46H244.69ZM239.88 118.85C239.16 118.2 238.21 117.86 237.24 117.89C236.25 117.85 235.29 118.2 234.55 118.85C233.78 119.61 233.34 120.65 233.35 121.73H240.87C241 120.66 240.62 119.6 239.85 118.85H239.88Z" fill="#B41D1B"></path><path d="M253.86 115.58C254.82 115.01 255.93 114.71 257.05 114.72V118.95H255.91C253.02 118.95 251.57 120.3 251.57 122.99V130.46H247.63V114.95H251.57V117.91C252.12 116.95 252.91 116.14 253.87 115.58H253.86Z" fill="#B41D1B"></path><path d="M262.51 126.35V130.47H258.26V126.35H262.51Z" fill="#B41D1B"></path><path d="M277.11 116.38C278.46 117.49 279.36 119.07 279.62 120.8H275.45C275.31 120.04 274.9 119.36 274.3 118.88C273.65 118.39 272.85 118.14 272.03 118.17C271.03 118.15 270.07 118.58 269.42 119.33C268.01 121.38 268.01 124.08 269.42 126.13C270.08 126.88 271.03 127.31 272.03 127.29C272.85 127.32 273.65 127.07 274.3 126.57C274.9 126.09 275.31 125.41 275.45 124.65H279.62C279.36 126.38 278.46 127.96 277.11 129.07C275.69 130.18 273.92 130.76 272.11 130.69C270.71 130.72 269.32 130.39 268.07 129.73C266.91 129.1 265.96 128.14 265.33 126.98C264.02 124.31 264.02 121.18 265.33 118.51C265.95 117.34 266.9 116.38 268.07 115.75C269.31 115.1 270.7 114.77 272.11 114.79C273.91 114.72 275.68 115.28 277.11 116.38Z" fill="#B41D1B"></path><path d="M293.66 115.71C294.85 116.33 295.84 117.29 296.49 118.47C297.87 121.12 297.87 124.29 296.49 126.94C295.83 128.11 294.84 129.06 293.66 129.69C291.1 130.98 288.07 130.98 285.51 129.69C284.31 129.07 283.31 128.11 282.63 126.94C281.25 124.29 281.25 121.12 282.63 118.47C283.3 117.29 284.3 116.33 285.51 115.71C288.08 114.44 291.09 114.44 293.66 115.71ZM286.78 119.33C285.27 121.32 285.27 124.07 286.78 126.06C288.32 127.61 290.83 127.61 292.38 126.06C293.9 124.08 293.9 121.32 292.38 119.33C290.83 117.79 288.33 117.79 286.78 119.33Z" fill="#B41D1B"></path><path d="M153.06 32.35H173.35C173.35 43.56 164.27 52.64 153.06 52.64V32.35Z" fill="#B41D1B"></path><path d="M193.64 32.35V52.63H173.35C173.35 41.43 182.44 32.35 193.64 32.35Z" fill="#FF7E6E"></path><path d="M193.64 52.63H173.35V93.21H193.64V52.63Z" fill="#FC584E"></path><path d="M213.93 32.35H193.64V52.64H213.93V32.35Z" fill="#FFA090"></path><path d="M161.18 154.43V162.05H150.43V194.03H140.8V162.05H130.16V154.43H161.18Z" fill="black"></path><path d="M194.19 156.42C197.23 158.16 199.63 160.56 201.39 163.64C203.15 166.72 204.02 170.2 204.02 174.08C204.02 177.96 203.13 181.45 201.36 184.55C199.59 187.65 197.18 190.07 194.14 191.8C191.1 193.54 187.73 194.4 184.03 194.4C180.33 194.4 176.96 193.53 173.92 191.8C170.88 190.06 168.47 187.65 166.7 184.55C164.93 181.45 164.04 177.96 164.04 174.08C164.04 170.2 164.93 166.72 166.7 163.64C168.47 160.56 170.88 158.15 173.92 156.42C176.96 154.68 180.33 153.82 184.03 153.82C187.73 153.82 191.15 154.69 194.19 156.42ZM176.55 165.77C174.7 167.81 173.78 170.58 173.78 174.09C173.78 177.6 174.7 180.33 176.55 182.38C178.4 184.43 180.89 185.46 184.03 185.46C187.17 185.46 189.61 184.43 191.48 182.38C193.35 180.33 194.28 177.56 194.28 174.09C194.28 170.62 193.36 167.86 191.51 165.8C189.66 163.75 187.17 162.72 184.03 162.72C180.89 162.72 178.4 163.74 176.55 165.77Z" fill="black"></path><path d="M218.97 180.13V194.02H209.39V154.43H224.9C229.6 154.43 233.19 155.6 235.65 157.93C238.11 160.26 239.35 163.41 239.35 167.37C239.35 169.83 238.8 172.03 237.7 173.95C236.6 175.87 234.96 177.39 232.8 178.49C230.63 179.59 228 180.14 224.9 180.14H218.96L218.97 180.13ZM229.61 167.37C229.61 163.9 227.69 162.16 223.84 162.16H218.97V172.46H223.84C227.68 172.46 229.61 170.76 229.61 167.36V167.37Z" fill="black"></path><path d="M158.5 341.59C158.5 340.06 157.84 339.29 156.51 339.29C155.76 339.29 155.22 339.55 154.87 340.07C154.52 340.59 154.33 341.4 154.3 342.51H149.62C149.73 340.1 150.46 338.29 151.8 337.08C153.14 335.87 154.84 335.26 156.9 335.26C158.96 335.26 160.67 335.8 161.76 336.88C162.85 337.96 163.4 339.37 163.4 341.11C163.4 343.03 162.66 344.91 161.19 346.75C159.72 348.59 157.95 350.14 155.9 351.41H163.71V355.27H149.6V351.69C155.54 347.45 158.5 344.08 158.5 341.58V341.59Z" fill="black"></path><path d="M165.67 345.4C165.67 342.32 166.3 339.88 167.55 338.08C168.8 336.28 170.8 335.38 173.54 335.38C176.28 335.38 178.26 336.28 179.52 338.08C180.78 339.88 181.41 342.32 181.41 345.4C181.41 348.48 180.78 350.95 179.52 352.76C178.26 354.57 176.27 355.48 173.54 355.48C170.81 355.48 168.8 354.57 167.55 352.76C166.3 350.95 165.67 348.5 165.67 345.4ZM176.65 345.4C176.65 343.63 176.44 342.27 176.02 341.33C175.6 340.39 174.77 339.92 173.54 339.92C172.31 339.92 171.45 340.4 171.02 341.35C170.59 342.3 170.38 343.66 170.38 345.41C170.38 347.16 170.59 348.55 171.02 349.51C171.45 350.47 172.29 350.95 173.54 350.95C174.79 350.95 175.6 350.47 176.02 349.51C176.44 348.55 176.65 347.18 176.65 345.41V345.4Z" fill="black"></path><path d="M192.38 341.59C192.38 340.06 191.72 339.29 190.39 339.29C189.64 339.29 189.1 339.55 188.75 340.07C188.4 340.59 188.21 341.4 188.18 342.51H183.5C183.61 340.1 184.34 338.29 185.68 337.08C187.02 335.87 188.72 335.26 190.78 335.26C192.84 335.26 194.55 335.8 195.64 336.88C196.73 337.96 197.28 339.37 197.28 341.11C197.28 343.03 196.54 344.91 195.07 346.75C193.6 348.59 191.83 350.14 189.78 351.41H197.59V355.27H183.48V351.69C189.42 347.45 192.38 344.08 192.38 341.58V341.59Z" fill="black"></path><path d="M214.17 339.44H205.27V343.44C205.66 342.99 206.21 342.64 206.91 342.39C207.61 342.14 208.37 342.01 209.19 342.01C210.52 342.01 211.63 342.3 212.52 342.89C213.42 343.48 214.08 344.27 214.51 345.26C214.94 346.25 215.15 347.34 215.15 348.54C215.15 350.71 214.54 352.42 213.33 353.68C212.12 354.94 210.41 355.57 208.21 355.57C206.72 355.57 205.42 355.3 204.32 354.77C203.22 354.24 202.37 353.5 201.77 352.54C201.17 351.58 200.86 350.49 200.82 349.24H205.5C205.59 349.88 205.85 350.4 206.27 350.81C206.69 351.22 207.26 351.43 207.99 351.43C208.83 351.43 209.46 351.16 209.88 350.62C210.3 350.08 210.51 349.36 210.51 348.46C210.51 347.56 210.29 346.94 209.84 346.47C209.39 346 208.77 345.77 207.96 345.77C207.34 345.77 206.83 345.91 206.42 346.18C206.01 346.45 205.73 346.8 205.58 347.23H200.93V335.25H214.17V339.45V339.44Z" fill="black"></path><path d="M262.888 311.784H253.98L252.552 316H246.466L255.102 292.132H261.834L270.47 316H264.316L262.888 311.784ZM261.392 307.296L258.434 298.558L255.51 307.296H261.392Z" fill="black"></path><path d="M235.748 316.238C234.003 316.238 232.439 315.955 231.056 315.388C229.673 314.821 228.563 313.983 227.724 312.872C226.908 311.761 226.477 310.424 226.432 308.86H232.62C232.711 309.744 233.017 310.424 233.538 310.9C234.059 311.353 234.739 311.58 235.578 311.58C236.439 311.58 237.119 311.387 237.618 311.002C238.117 310.594 238.366 310.039 238.366 309.336C238.366 308.747 238.162 308.259 237.754 307.874C237.369 307.489 236.881 307.171 236.292 306.922C235.725 306.673 234.909 306.389 233.844 306.072C232.303 305.596 231.045 305.12 230.07 304.644C229.095 304.168 228.257 303.465 227.554 302.536C226.851 301.607 226.5 300.394 226.5 298.898C226.5 296.677 227.305 294.943 228.914 293.696C230.523 292.427 232.62 291.792 235.204 291.792C237.833 291.792 239.953 292.427 241.562 293.696C243.171 294.943 244.033 296.688 244.146 298.932H237.856C237.811 298.161 237.527 297.561 237.006 297.13C236.485 296.677 235.816 296.45 235 296.45C234.297 296.45 233.731 296.643 233.3 297.028C232.869 297.391 232.654 297.923 232.654 298.626C232.654 299.397 233.017 299.997 233.742 300.428C234.467 300.859 235.601 301.323 237.142 301.822C238.683 302.343 239.93 302.842 240.882 303.318C241.857 303.794 242.695 304.485 243.398 305.392C244.101 306.299 244.452 307.466 244.452 308.894C244.452 310.254 244.101 311.489 243.398 312.6C242.718 313.711 241.721 314.595 240.406 315.252C239.091 315.909 237.539 316.238 235.748 316.238Z" fill="black"></path><path d="M208.851 292.132V306.412C208.851 307.84 209.203 308.939 209.905 309.71C210.608 310.481 211.639 310.866 212.999 310.866C214.359 310.866 215.402 310.481 216.127 309.71C216.853 308.939 217.215 307.84 217.215 306.412V292.132H223.029V306.378C223.029 308.509 222.576 310.311 221.669 311.784C220.763 313.257 219.539 314.368 217.997 315.116C216.479 315.864 214.779 316.238 212.897 316.238C211.016 316.238 209.327 315.875 207.831 315.15C206.358 314.402 205.191 313.291 204.329 311.818C203.468 310.322 203.037 308.509 203.037 306.378V292.132H208.851Z" fill="black"></path><path d="M192.867 306.208C192.867 306.752 192.833 307.319 192.765 307.908H179.607C179.698 309.087 180.072 309.993 180.729 310.628C181.409 311.24 182.236 311.546 183.211 311.546C184.662 311.546 185.67 310.934 186.237 309.71H192.425C192.108 310.957 191.53 312.079 190.691 313.076C189.875 314.073 188.844 314.855 187.597 315.422C186.35 315.989 184.956 316.272 183.415 316.272C181.556 316.272 179.902 315.875 178.451 315.082C177 314.289 175.867 313.155 175.051 311.682C174.235 310.209 173.827 308.486 173.827 306.514C173.827 304.542 174.224 302.819 175.017 301.346C175.833 299.873 176.966 298.739 178.417 297.946C179.868 297.153 181.534 296.756 183.415 296.756C185.251 296.756 186.883 297.141 188.311 297.912C189.739 298.683 190.85 299.782 191.643 301.21C192.459 302.638 192.867 304.304 192.867 306.208ZM186.917 304.678C186.917 303.681 186.577 302.887 185.897 302.298C185.217 301.709 184.367 301.414 183.347 301.414C182.372 301.414 181.545 301.697 180.865 302.264C180.208 302.831 179.8 303.635 179.641 304.678H186.917Z" fill="black"></path><path d="M163.735 296.824C165.911 296.824 167.656 297.549 168.971 299C170.286 300.428 170.943 302.4 170.943 304.916V316H165.163V305.698C165.163 304.429 164.834 303.443 164.177 302.74C163.52 302.037 162.636 301.686 161.525 301.686C160.414 301.686 159.53 302.037 158.873 302.74C158.216 303.443 157.887 304.429 157.887 305.698V316H152.073V290.84H157.887V299.578C158.476 298.739 159.281 298.071 160.301 297.572C161.321 297.073 162.466 296.824 163.735 296.824Z" fill="black"></path><path d="M148.834 311.07V316H145.876C143.768 316 142.125 315.49 140.946 314.47C139.768 313.427 139.178 311.739 139.178 309.404V301.856H136.866V297.028H139.178V292.404H144.992V297.028H148.8V301.856H144.992V309.472C144.992 310.039 145.128 310.447 145.4 310.696C145.672 310.945 146.126 311.07 146.76 311.07H148.834Z" fill="black"></path><path d="M119.705 296.824C121.926 296.824 123.694 297.549 125.009 299C126.346 300.428 127.015 302.4 127.015 304.916V316H121.235V305.698C121.235 304.429 120.906 303.443 120.249 302.74C119.592 302.037 118.708 301.686 117.597 301.686C116.486 301.686 115.602 302.037 114.945 302.74C114.288 303.443 113.959 304.429 113.959 305.698V316H108.145V297.028H113.959V299.544C114.548 298.705 115.342 298.048 116.339 297.572C117.336 297.073 118.458 296.824 119.705 296.824Z" fill="black"></path><path d="M101.042 295.056C100.022 295.056 99.1831 294.761 98.5258 294.172C97.8911 293.56 97.5738 292.812 97.5738 291.928C97.5738 291.021 97.8911 290.273 98.5258 289.684C99.1831 289.072 100.022 288.766 101.042 288.766C102.039 288.766 102.855 289.072 103.49 289.684C104.147 290.273 104.476 291.021 104.476 291.928C104.476 292.812 104.147 293.56 103.49 294.172C102.855 294.761 102.039 295.056 101.042 295.056ZM103.932 297.028V316H98.1178V297.028H103.932Z" fill="black"></path><path d="M272.914 276.272C271.259 276.272 269.786 275.989 268.494 275.422C267.202 274.855 266.182 274.085 265.434 273.11C264.686 272.113 264.267 271.002 264.176 269.778H269.922C269.99 270.435 270.296 270.968 270.84 271.376C271.384 271.784 272.053 271.988 272.846 271.988C273.571 271.988 274.127 271.852 274.512 271.58C274.92 271.285 275.124 270.911 275.124 270.458C275.124 269.914 274.841 269.517 274.274 269.268C273.707 268.996 272.789 268.701 271.52 268.384C270.16 268.067 269.027 267.738 268.12 267.398C267.213 267.035 266.431 266.48 265.774 265.732C265.117 264.961 264.788 263.93 264.788 262.638C264.788 261.55 265.083 260.564 265.672 259.68C266.284 258.773 267.168 258.059 268.324 257.538C269.503 257.017 270.897 256.756 272.506 256.756C274.886 256.756 276.756 257.345 278.116 258.524C279.499 259.703 280.292 261.267 280.496 263.216H275.124C275.033 262.559 274.739 262.037 274.24 261.652C273.764 261.267 273.129 261.074 272.336 261.074C271.656 261.074 271.135 261.21 270.772 261.482C270.409 261.731 270.228 262.083 270.228 262.536C270.228 263.08 270.511 263.488 271.078 263.76C271.667 264.032 272.574 264.304 273.798 264.576C275.203 264.939 276.348 265.301 277.232 265.664C278.116 266.004 278.887 266.571 279.544 267.364C280.224 268.135 280.575 269.177 280.598 270.492C280.598 271.603 280.281 272.6 279.646 273.484C279.034 274.345 278.139 275.025 276.96 275.524C275.804 276.023 274.455 276.272 272.914 276.272Z" fill="black"></path><path d="M256.467 260.19C257.147 259.147 257.997 258.331 259.017 257.742C260.037 257.13 261.17 256.824 262.417 256.824V262.978H260.819C259.368 262.978 258.28 263.295 257.555 263.93C256.83 264.542 256.467 265.63 256.467 267.194V276H250.653V257.028H256.467V260.19Z" fill="black"></path><path d="M247.586 266.208C247.586 266.752 247.552 267.319 247.484 267.908H234.326C234.416 269.087 234.79 269.993 235.448 270.628C236.128 271.24 236.955 271.546 237.93 271.546C239.38 271.546 240.389 270.934 240.956 269.71H247.144C246.826 270.957 246.248 272.079 245.41 273.076C244.594 274.073 243.562 274.855 242.316 275.422C241.069 275.989 239.675 276.272 238.134 276.272C236.275 276.272 234.62 275.875 233.17 275.082C231.719 274.289 230.586 273.155 229.77 271.682C228.954 270.209 228.546 268.486 228.546 266.514C228.546 264.542 228.942 262.819 229.736 261.346C230.552 259.873 231.685 258.739 233.136 257.946C234.586 257.153 236.252 256.756 238.134 256.756C239.97 256.756 241.602 257.141 243.03 257.912C244.458 258.683 245.568 259.782 246.362 261.21C247.178 262.638 247.586 264.304 247.586 266.208ZM241.636 264.678C241.636 263.681 241.296 262.887 240.616 262.298C239.936 261.709 239.086 261.414 238.066 261.414C237.091 261.414 236.264 261.697 235.584 262.264C234.926 262.831 234.518 263.635 234.36 264.678H241.636Z" fill="black"></path><path d="M212.44 259.714C213.006 258.83 213.788 258.116 214.786 257.572C215.783 257.028 216.95 256.756 218.288 256.756C219.852 256.756 221.268 257.153 222.538 257.946C223.807 258.739 224.804 259.873 225.53 261.346C226.278 262.819 226.652 264.531 226.652 266.48C226.652 268.429 226.278 270.152 225.53 271.648C224.804 273.121 223.807 274.266 222.538 275.082C221.268 275.875 219.852 276.272 218.288 276.272C216.973 276.272 215.806 276 214.786 275.456C213.788 274.912 213.006 274.209 212.44 273.348V285.044H206.626V257.028H212.44V259.714ZM220.736 266.48C220.736 265.029 220.328 263.896 219.512 263.08C218.718 262.241 217.732 261.822 216.554 261.822C215.398 261.822 214.412 262.241 213.596 263.08C212.802 263.919 212.406 265.063 212.406 266.514C212.406 267.965 212.802 269.109 213.596 269.948C214.412 270.787 215.398 271.206 216.554 271.206C217.71 271.206 218.696 270.787 219.512 269.948C220.328 269.087 220.736 267.931 220.736 266.48Z" fill="black"></path><path d="M193.613 276.272C191.754 276.272 190.077 275.875 188.581 275.082C187.108 274.289 185.94 273.155 185.079 271.682C184.24 270.209 183.821 268.486 183.821 266.514C183.821 264.565 184.252 262.853 185.113 261.38C185.974 259.884 187.153 258.739 188.649 257.946C190.145 257.153 191.822 256.756 193.681 256.756C195.54 256.756 197.217 257.153 198.713 257.946C200.209 258.739 201.388 259.884 202.249 261.38C203.11 262.853 203.541 264.565 203.541 266.514C203.541 268.463 203.099 270.186 202.215 271.682C201.354 273.155 200.164 274.289 198.645 275.082C197.149 275.875 195.472 276.272 193.613 276.272ZM193.613 271.24C194.724 271.24 195.664 270.832 196.435 270.016C197.228 269.2 197.625 268.033 197.625 266.514C197.625 264.995 197.24 263.828 196.469 263.012C195.721 262.196 194.792 261.788 193.681 261.788C192.548 261.788 191.607 262.196 190.859 263.012C190.111 263.805 189.737 264.973 189.737 266.514C189.737 268.033 190.1 269.2 190.825 270.016C191.573 270.832 192.502 271.24 193.613 271.24Z" fill="black"></path><path d="M180.764 250.84V276H174.95V250.84H180.764Z" fill="black"></path><path d="M171.883 266.208C171.883 266.752 171.849 267.319 171.781 267.908H158.623C158.713 269.087 159.087 269.993 159.745 270.628C160.425 271.24 161.252 271.546 162.227 271.546C163.677 271.546 164.686 270.934 165.253 269.71H171.441C171.123 270.957 170.545 272.079 169.707 273.076C168.891 274.073 167.859 274.855 166.613 275.422C165.366 275.989 163.972 276.272 162.431 276.272C160.572 276.272 158.917 275.875 157.467 275.082C156.016 274.289 154.883 273.155 154.067 271.682C153.251 270.209 152.843 268.486 152.843 266.514C152.843 264.542 153.239 262.819 154.033 261.346C154.849 259.873 155.982 258.739 157.433 257.946C158.883 257.153 160.549 256.756 162.431 256.756C164.267 256.756 165.899 257.141 167.327 257.912C168.755 258.683 169.865 259.782 170.659 261.21C171.475 262.638 171.883 264.304 171.883 266.208ZM165.933 264.678C165.933 263.681 165.593 262.887 164.913 262.298C164.233 261.709 163.383 261.414 162.363 261.414C161.388 261.414 160.561 261.697 159.881 262.264C159.223 262.831 158.815 263.635 158.657 264.678H165.933Z" fill="black"></path><path d="M141.249 270.56L145.363 257.028H151.551L144.819 276H137.645L130.913 257.028H137.135L141.249 270.56Z" fill="black"></path><path d="M129.648 266.208C129.648 266.752 129.614 267.319 129.546 267.908H116.388C116.479 269.087 116.853 269.993 117.51 270.628C118.19 271.24 119.018 271.546 119.992 271.546C121.443 271.546 122.452 270.934 123.018 269.71H129.206C128.889 270.957 128.311 272.079 127.472 273.076C126.656 274.073 125.625 274.855 124.378 275.422C123.132 275.989 121.738 276.272 120.196 276.272C118.338 276.272 116.683 275.875 115.232 275.082C113.782 274.289 112.648 273.155 111.832 271.682C111.016 270.209 110.608 268.486 110.608 266.514C110.608 264.542 111.005 262.819 111.798 261.346C112.614 259.873 113.748 258.739 115.198 257.946C116.649 257.153 118.315 256.756 120.196 256.756C122.032 256.756 123.664 257.141 125.092 257.912C126.52 258.683 127.631 259.782 128.424 261.21C129.24 262.638 129.648 264.304 129.648 266.208ZM123.698 264.678C123.698 263.681 123.358 262.887 122.678 262.298C121.998 261.709 121.148 261.414 120.128 261.414C119.154 261.414 118.326 261.697 117.646 262.264C116.989 262.831 116.581 263.635 116.422 264.678H123.698Z" fill="black"></path><path d="M96.0031 252.132C98.5191 252.132 100.718 252.631 102.599 253.628C104.48 254.625 105.931 256.031 106.951 257.844C107.994 259.635 108.515 261.709 108.515 264.066C108.515 266.401 107.994 268.475 106.951 270.288C105.931 272.101 104.469 273.507 102.565 274.504C100.684 275.501 98.4965 276 96.0031 276H87.0611V252.132H96.0031ZM95.6291 270.968C97.8278 270.968 99.5391 270.367 100.763 269.166C101.987 267.965 102.599 266.265 102.599 264.066C102.599 261.867 101.987 260.156 100.763 258.932C99.5391 257.708 97.8278 257.096 95.6291 257.096H92.8751V270.968H95.6291Z" fill="black"></path><path d="M260.867 226.208C260.867 226.752 260.833 227.319 260.765 227.908H247.607C247.698 229.087 248.072 229.993 248.729 230.628C249.409 231.24 250.236 231.546 251.211 231.546C252.662 231.546 253.67 230.934 254.237 229.71H260.425C260.108 230.957 259.53 232.079 258.691 233.076C257.875 234.073 256.844 234.855 255.597 235.422C254.35 235.989 252.956 236.272 251.415 236.272C249.556 236.272 247.902 235.875 246.451 235.082C245 234.289 243.867 233.155 243.051 231.682C242.235 230.209 241.827 228.486 241.827 226.514C241.827 224.542 242.224 222.819 243.017 221.346C243.833 219.873 244.966 218.739 246.417 217.946C247.868 217.153 249.534 216.756 251.415 216.756C253.251 216.756 254.883 217.141 256.311 217.912C257.739 218.683 258.85 219.782 259.643 221.21C260.459 222.638 260.867 224.304 260.867 226.208ZM254.917 224.678C254.917 223.681 254.577 222.887 253.897 222.298C253.217 221.709 252.367 221.414 251.347 221.414C250.372 221.414 249.545 221.697 248.865 222.264C248.208 222.831 247.8 223.635 247.641 224.678H254.917Z" fill="black"></path><path d="M234.254 220.19C234.934 219.147 235.784 218.331 236.804 217.742C237.824 217.13 238.957 216.824 240.204 216.824V222.978H238.606C237.155 222.978 236.067 223.295 235.342 223.93C234.617 224.542 234.254 225.63 234.254 227.194V236H228.44V217.028H234.254V220.19Z" fill="black"></path><path d="M204.208 226.48C204.208 224.531 204.571 222.819 205.296 221.346C206.044 219.873 207.053 218.739 208.322 217.946C209.591 217.153 211.008 216.756 212.572 216.756C213.909 216.756 215.077 217.028 216.074 217.572C217.094 218.116 217.876 218.83 218.42 219.714V217.028H224.234V236H218.42V233.314C217.853 234.198 217.06 234.912 216.04 235.456C215.043 236 213.875 236.272 212.538 236.272C210.997 236.272 209.591 235.875 208.322 235.082C207.053 234.266 206.044 233.121 205.296 231.648C204.571 230.152 204.208 228.429 204.208 226.48ZM218.42 226.514C218.42 225.063 218.012 223.919 217.196 223.08C216.403 222.241 215.428 221.822 214.272 221.822C213.116 221.822 212.13 222.241 211.314 223.08C210.521 223.896 210.124 225.029 210.124 226.48C210.124 227.931 210.521 229.087 211.314 229.948C212.13 230.787 213.116 231.206 214.272 231.206C215.428 231.206 216.403 230.787 217.196 229.948C218.012 229.109 218.42 227.965 218.42 226.514Z" fill="black"></path><path d="M203.147 217.028L198.013 236H191.587L188.595 223.692L185.501 236H179.109L173.941 217.028H179.755L182.441 230.594L185.637 217.028H191.791L195.021 230.526L197.673 217.028H203.147Z" fill="black"></path><path d="M172.674 231.07V236H169.716C167.608 236 165.965 235.49 164.786 234.47C163.608 233.427 163.018 231.739 163.018 229.404V221.856H160.706V217.028H163.018V212.404H168.832V217.028H172.64V221.856H168.832V229.472C168.832 230.039 168.968 230.447 169.24 230.696C169.512 230.945 169.966 231.07 170.6 231.07H172.674Z" fill="black"></path><path d="M159.368 221.856H156.24V236H150.426V221.856H148.318V217.028H150.426V216.484C150.426 214.149 151.095 212.381 152.432 211.18C153.77 209.956 155.73 209.344 158.314 209.344C158.745 209.344 159.062 209.355 159.266 209.378V214.308C158.156 214.24 157.374 214.399 156.92 214.784C156.467 215.169 156.24 215.861 156.24 216.858V217.028H159.368V221.856Z" fill="black"></path><path d="M136.836 236.272C134.977 236.272 133.3 235.875 131.804 235.082C130.33 234.289 129.163 233.155 128.302 231.682C127.463 230.209 127.044 228.486 127.044 226.514C127.044 224.565 127.474 222.853 128.336 221.38C129.197 219.884 130.376 218.739 131.872 217.946C133.368 217.153 135.045 216.756 136.904 216.756C138.762 216.756 140.44 217.153 141.936 217.946C143.432 218.739 144.61 219.884 145.472 221.38C146.333 222.853 146.764 224.565 146.764 226.514C146.764 228.463 146.322 230.186 145.438 231.682C144.576 233.155 143.386 234.289 141.868 235.082C140.372 235.875 138.694 236.272 136.836 236.272ZM136.836 231.24C137.946 231.24 138.887 230.832 139.658 230.016C140.451 229.2 140.848 228.033 140.848 226.514C140.848 224.995 140.462 223.828 139.692 223.012C138.944 222.196 138.014 221.788 136.904 221.788C135.77 221.788 134.83 222.196 134.082 223.012C133.334 223.805 132.96 224.973 132.96 226.514C132.96 228.033 133.322 229.2 134.048 230.016C134.796 230.832 135.725 231.24 136.836 231.24Z" fill="black"></path><path d="M115.918 236.238C114.173 236.238 112.609 235.955 111.226 235.388C109.843 234.821 108.733 233.983 107.894 232.872C107.078 231.761 106.647 230.424 106.602 228.86H112.79C112.88 229.744 113.187 230.424 113.708 230.9C114.229 231.353 114.909 231.58 115.748 231.58C116.609 231.58 117.289 231.387 117.788 231.002C118.287 230.594 118.536 230.039 118.536 229.336C118.536 228.747 118.332 228.259 117.924 227.874C117.539 227.489 117.051 227.171 116.462 226.922C115.895 226.673 115.079 226.389 114.014 226.072C112.473 225.596 111.215 225.12 110.24 224.644C109.265 224.168 108.427 223.465 107.724 222.536C107.021 221.607 106.67 220.394 106.67 218.898C106.67 216.677 107.475 214.943 109.084 213.696C110.693 212.427 112.79 211.792 115.374 211.792C118.003 211.792 120.123 212.427 121.732 213.696C123.341 214.943 124.203 216.688 124.316 218.932H118.026C117.98 218.161 117.697 217.561 117.176 217.13C116.655 216.677 115.986 216.45 115.17 216.45C114.467 216.45 113.9 216.643 113.47 217.028C113.039 217.391 112.824 217.923 112.824 218.626C112.824 219.397 113.187 219.997 113.912 220.428C114.637 220.859 115.771 221.323 117.312 221.822C118.853 222.343 120.1 222.842 121.052 223.318C122.027 223.794 122.865 224.485 123.568 225.392C124.271 226.299 124.622 227.466 124.622 228.894C124.622 230.254 124.271 231.489 123.568 232.6C122.888 233.711 121.891 234.595 120.576 235.252C119.261 235.909 117.709 236.238 115.918 236.238Z" fill="black"></path></g><defs><linearGradient id="paint0_linear_1_2" x1="183.5" y1="502.8" x2="183.5" y2="0" gradientUnits="userSpaceOnUse"><stop stop-color="#B41D1B"></stop><stop offset="0.12" stop-color="#BD2522"></stop><stop offset="0.31" stop-color="#D73A34"></stop><stop offset="0.54" stop-color="#FC584E"></stop><stop offset="0.78" stop-color="#FF7E6E"></stop><stop offset="1" stop-color="#FFA090"></stop></linearGradient><clipPath id="clip0_1_2"><rect width="367" height="502.81" fill="white"></rect></clipPath></defs></svg>